<svg width="1440" height="1024" viewBox="0 0 1440 1024" fill="none" xmlns="http://www.w3.org/2000/svg">
<g clip-path="url(#clip0_131_692)">
<rect width="1440" height="1024" fill="white"/>
<circle cx="263" cy="1139" r="398" stroke="#FCBF5D" stroke-width="2"/>
<circle cx="343" cy="1161" r="398" stroke="#FCBF5D" stroke-width="2"/>
<path d="M-34.1258 212.909L180.692 241.021C321.483 259.445 461.128 199.699 545.025 85.1441V85.1441C603.968 4.66201 693.845 -47.5452 792.958 -58.8723L969.985 -79.104" stroke="#8BCA82" stroke-width="2"/>
<path d="M642.682 1054.8L882.636 1026.94C1041.79 1008.47 1179.26 901.703 1239.8 749.555V749.555C1282.29 642.77 1366.82 558.671 1472.41 518.119L1658.82 446.533" stroke="#3380B8" stroke-width="2"/>
<path d="M-14.1258 230.909L200.692 259.021C341.483 277.445 481.128 217.699 565.025 103.144V103.144C623.968 22.662 713.845 -29.5452 812.958 -40.8723L989.985 -61.104" stroke="#8BCA82" stroke-width="2"/>
<path d="M669.33 1069.52L909.284 1041.66C1068.44 1023.19 1205.91 916.422 1266.45 764.274V764.274C1308.94 657.489 1393.47 573.39 1499.06 532.838L1685.47 461.252" stroke="#3380B8" stroke-width="2"/>
<path d="M-71.484 260.632L47.0642 354.979C220.393 492.923 477.309 430.034 567.325 227.627V227.627C607.103 138.183 686.636 72.6586 782.039 50.7308L1185.49 -42" stroke="#8BCA82" stroke-width="2"/>
<path d="M-43.6892 528.054L516.112 557.424C613.051 562.51 700.086 545.628 767.677 508.628L955.535 405.791C1004.23 379.136 1064.07 363.75 1130.96 360.685L1560.72 340.995" stroke="#D0D0D0" stroke-width="2"/>
<path d="M-11.7332 539.585L548.068 568.955C645.007 574.041 732.042 557.158 799.633 520.158L987.491 417.322C1036.19 390.666 1096.02 375.281 1162.92 372.216L1592.67 352.525" stroke="#D0D0D0" stroke-width="2"/>
<path d="M-103.382 558.625L306.393 689.37C507.835 753.643 699.871 733.517 807.049 636.899L942.401 514.884C992.024 470.15 1062.56 442.396 1146.23 434.687L1905.06 364.763" stroke="#D0D0D0" stroke-width="2"/>
<path d="M614.794 1118.96L768.226 1191.73C993.188 1298.41 1259.12 1154.75 1302.55 903.077V903.077C1321.71 792.028 1391.26 696.06 1489.92 644.536L1903.76 428.408" stroke="#3380B8" stroke-width="2"/>
<path d="M1875 -115C1875 104.809 1696.81 283 1477 283C1257.19 283 1079 104.809 1079 -115C1079 -334.809 1257.19 -513 1477 -513C1696.81 -513 1875 -334.809 1875 -115Z" stroke="#FC7765" stroke-width="2"/>
<path d="M1913 -139C1913 80.8093 1734.81 259 1515 259C1295.19 259 1117 80.8093 1117 -139C1117 -358.809 1295.19 -537 1515 -537C1734.81 -537 1913 -358.809 1913 -139Z" stroke="#FC7765" stroke-width="2"/>
</g>
<defs>
<clipPath id="clip0_131_692">
<rect width="1440" height="1024" fill="white"/>
</clipPath>
</defs>
</svg>
